<?xml version="1.0" encoding="UTF-8"?><svg id="Layer_2" xmlns="http://www.w3.org/2000/svg" xmlns:xlink="http://www.w3.org/1999/xlink" viewBox="0 0 864.06 91.93"><defs><style>.cls-1{fill:#1b6afe;}.cls-1,.cls-2{stroke-width:0px;}</style></defs><g id="Layer_1-2"><g id="type"><a xlink:href="61.0780392156863"><path id="type_PathItem_" class="cls-2" d="m148.16,56.16c-2,.2-4.6.2-7.4.2-2.6,0-5.3-.1-7.1-.3-.2,1.5-.2,2.9-.2,4.3,0,12.8,10.6,18.9,36.8,18.9s35.1-7,35.1-19.8-8.1-17.6-32.8-19.6c-21.2-1.6-23.7-4.4-23.7-8.8,0-4.8,4.4-7.4,19.5-7.4,17.1,0,21.3,3.1,21.3,9.2,0,.7,0,1.7-.1,2.5,1.6-.1,4.3-.2,7.1-.2s5.3.1,6.9.2c.1-1.4.1-2.7.1-4.1,0-12.7-9.1-18.7-34.9-18.7-24.3,0-34.3,7.1-34.3,18.8s7.1,17.5,33.2,19.3c19.8,1.4,23.5,3.9,23.5,9.2s-4.4,7.9-21,7.9-21.9-2.9-21.9-10.1v-1.5h-.1Z"/></a><a xlink:href="61.0780392156863"><path id="type_PathItem_-2" class="cls-2" d="m270.86,14.16c.3,6.3.4,17.6.4,25.4-6.8.3-14.9.3-22.7.3s-15.7,0-22.6-.3c0-7.8.1-19.2.3-25.4h-15.3c.4,8.6.3,18.4.3,31.8s.1,22.6-.3,31.8h15.3c-.3-6.6-.3-17.6-.3-25,6.8-.3,14.8-.2,22.6-.2s15.9-.1,22.7.2c0,7.4-.1,18.3-.4,25h15.4c-.3-9.2-.4-18.3-.4-31.8s.1-23.1.4-31.8c0,0-15.4,0-15.4,0Z"/></a><a xlink:href="61.0780392156863"><path id="type_PathItem_-3" class="cls-2" d="m295.16,14.16c.3,7.9.3,18.3.3,31.8s0,23.6-.3,31.8h66.1c-.1-1.4-.1-3.9-.1-5.7,0-2,0-4.6.1-6-15.8.2-37.5.3-51,.3v-15.9c15.9,0,37,.2,50,.3,0-2.5,0-8,.1-10.3-13.1.2-34.1.2-50.1.2v-15.6c13.4,0,34.6.1,51,.3-.1-1.4-.1-3.9-.1-5.8s0-4.1.1-5.3l-66.1-.1h0Z"/></a><a xlink:href="61.0780392156863"><path id="type_PathItem_-4" class="cls-2" d="m368.66,14.16c.3,6.1.3,16.8.3,31.8,0,13.6-.3,25.7-.3,31.8h55c-.1-2.1-.1-4.2-.1-6.4s0-4.3.1-6.4c-12.9.3-28.9.3-40.2.3-.1-5.4-.1-12.7-.1-19.3.1-14.7.3-26.6.5-31.7l-15.2-.1h0Z"/></a><a xlink:href="61.0780392156863"><path id="type_PathItem_-5" class="cls-2" d="m425.46,14.16c.3,6.1.3,16.8.3,31.8,0,13.6-.3,25.7-.3,31.8h55c-.1-2.1-.1-4.2-.1-6.4s0-4.3.1-6.4c-12.9.3-28.9.3-40.2.3-.1-5.4-.1-12.7-.1-19.3.1-14.7.3-26.6.5-31.7l-15.2-.1h0Z"/></a><path id="type_CompoundPathItem_" class="cls-2" d="m520.16,49.46c-9.7,0-19.1-.2-23.2-.2v-23.5c6.2-.2,18.7-.3,23.6-.3,12.2,0,17.4,3,17.4,12s-4.9,12-17.8,12h0Zm-38.1-35.3c.3,8.7.3,18.3.3,31.8s0,22.6-.3,31.8h15.7c-.3-4.6-.5-10.4-.6-17.1,11.2.3,16.9.3,25.8.3,19,0,29.4-7.1,29.4-23.7,0-17.6-10.7-23.1-29.1-23.1h-41.2Z"/><path id="type_CompoundPathItem_-2" class="cls-2" d="m570.56,45.56c0-6.4,0-13.1.1-19.9,6.7-.3,20.3-.3,25.2-.3,12,0,16.7,2.3,16.7,10,0,6.7-4.8,10.5-16,10.5s-21.7-.1-26-.3h0Zm37.7,5.9c12.8-1.8,18.5-7.7,18.5-18.4,0-13.1-9.6-18.9-27.2-18.9h-43.3c.2,9.2.3,18.3.3,31.8s-.2,22.6-.3,31.8h15.4c-.5-5.3-.8-12.8-.9-21.5h24.8c11.7,0,13.3,2.7,17.4,14.8,1.6,5.9,2,6.7,4.7,6.7h13.4c-1.2-2.5-2.7-7.1-4.8-13-3.3-9.2-7.4-11.9-18-13.1v-.2h0Z"/><path id="type_CompoundPathItem_-3" class="cls-2" d="m711.76,45.56c0-21.7-15.3-33.1-41.4-33.1s-41.2,11.4-41.2,33.1,14.3,33.9,41.2,33.9,41.4-12.5,41.4-33.9Zm-41.3,21.6c-17.6,0-26.5-7.4-26.5-21.4s8.9-21,26.5-21,26.4,7,26.4,21-8.8,21.4-26.4,21.4Z"/><path id="type_CompoundPathItem_-4" class="cls-2" d="m794.56,45.56c0-21.7-15.3-33.1-41.4-33.1s-41.2,11.4-41.2,33.1,14.3,33.9,41.2,33.9,41.4-12.5,41.4-33.9Zm-41.3,21.6c-17.6,0-26.5-7.4-26.5-21.4s8.9-21,26.5-21,26.4,7,26.4,21-8.7,21.4-26.4,21.4Z"/><a xlink:href="61.0780392156863"><path id="type_PathItem_-6" class="cls-2" d="m799.26,14.16c.3,8.6.3,18.3.3,31.8s-.1,23.1-.3,31.8h15.3c-.3-5.4-.4-13.1-.5-20.7,17.2,0,34.5.2,49,.2,0-3,0-8.6.2-11.6-14.7.3-31.9.3-49.3.3v-19.5c14.2,0,32,.1,50.1.2-.1-1.8-.2-4.3-.2-6.6,0-1.9.1-4.2.2-5.9h-64.8Z"/></a></g><a xlink:href="61.0780392156863"><path id="logoMark" class="cls-1" d="m86.16,50.96l-8,7.9,1.8,3h-12l4.9-4.9,16.2-16.2c2.7-2.7,3.8-6.6,2.8-10.3s-3.9-6.6-7.6-7.6l-6.2-1.6v11.2l3.4.9-5.7,5.7-2.8,2.9V12.06c0-3.8-2-7.4-5.4-9.3-3.3-1.9-7.4-1.9-10.7,0l-5.7,3.3,8,7.9,3-1.8v12l-8-8-13.1-13c-2.7-2.7-6.7-3.8-10.4-2.8-3.7,1-6.6,3.9-7.6,7.6l-1.7,6.3h11.3l.9-3.4,8.5,8.5H12.16c-3.8,0-7.4,2-9.3,5.3-1.9,3.3-1.9,7.4,0,10.7l3.2,5.6,8-7.9-1.8-3h12.2l-5.1,4.9-3.1,3.1-13.1,13c-2.7,2.7-3.8,6.6-2.8,10.3s3.9,6.6,7.6,7.6l6.3,1.7v-11.2l-3.4-.9,8.5-8.5v29.8c0,3.8,2,7.4,5.4,9.3,3.3,1.9,7.4,1.9,10.8-.1l5.6-3.2-8-7.9-3,1.8v-43l16-9.2,6.2,3.5,3.7,2.1,6.2,3.5v18.4l-6.2,3.6-3.6,2.1-6.2,3.6-12.1-7v14.1l17.3,17.3c2.7,2.7,6.7,3.8,10.4,2.8s6.6-3.9,7.6-7.6l1.7-6.3h-11.5l-.9,3.4-8.5-8.5h29.9c3.8,0,7.4-2,9.3-5.3,1.9-3.3,1.9-7.4,0-10.7l-3.3-5.6h0Z"/></a></g></svg>