<?xml version="1.0" encoding="UTF-8"?>
<svg id="Layer_1" data-name="Layer 1" xmlns="http://www.w3.org/2000/svg" xmlns:xlink="http://www.w3.org/1999/xlink" viewBox="0 0 92.2101 91.8121">
  <a xlink:href="61.0780392156863">
    <path id="logoMark" d="m86.1463,50.8679l-7.9701,7.9264,1.7641,3.0341h-12.0316l4.9369-4.905,16.2192-16.1563c2.7162-2.7053,3.7698-6.6369,2.7801-10.3284-.9904-3.6914-3.8842-6.5738-7.59-7.5598l-6.2948-1.6813v11.2133l3.401.9102-5.7108,5.6889-2.8048,2.9076V12.0448c0-3.8178-2.0432-7.3576-5.3684-9.2665-3.3252-1.9089-7.4118-1.9089-10.7369,0l-5.635,3.249,7.9574,7.9391,3.0459-1.7572v11.9845l-8.0082-7.977-13.1229-13.0717c-2.7286-2.718-6.6883-3.7673-10.3942-2.7812-3.7059.9861-6.5995,3.8684-7.5894,7.5598l-1.6879,6.2704h11.2572l.9137-3.3881,8.5032,8.47H12.0794c-3.8328,0-7.3864,2.0353-9.3028,5.3476-1.9164,3.3121-1.9164,7.3828,0,10.695l3.2617,5.613,7.9702-7.9264-1.7641-3.034h12.2091l-5.102,4.905-3.0839,3.072-13.1229,13.0717c-2.716,2.7053-3.7693,6.637-2.7794,10.3284.9899,3.6914,3.8836,6.5738,7.5894,7.5598l6.2949,1.6814v-11.2134l-3.4013-.9102,8.5287-8.4953-.0254,6.9657v22.844c0,3.818,2.0433,7.3575,5.3685,9.2661,3.3252,1.9094,7.4117,1.9094,10.7369,0l5.635-3.249-7.9575-7.9385-3.0459,1.7566v-42.9187l15.9911-9.178,6.1553,3.5397,3.6932,2.1238,6.1553,3.5397v18.394l-6.168,3.5524-3.6297,2.0858-6.1934,3.5524-12.1456-6.9909v14.1083l17.2856,17.2559c2.716,2.7056,6.663,3.7547,10.3689,2.7688,3.7059-.9859,6.5995-3.8684,7.5894-7.5599l1.6879-6.2707h-11.2572l-.9137,3.3882-8.5413-8.5078,7.0056.0379h22.9333c3.833,0,7.3861-2.0353,9.3029-5.3475,1.9161-3.3122,1.9161-7.3829,0-10.695l-3.2618-5.613v-.0126Z" style="fill: #636363;"/>
  </a>
</svg>