<?xml version="1.0" encoding="UTF-8"?>
<svg id="Layer_1" data-name="Layer 1" xmlns="http://www.w3.org/2000/svg" xmlns:xlink="http://www.w3.org/1999/xlink" viewBox="0 0 730.6519 66.9893">
  <g id="type">
    <a xlink:href="61.0780392156863">
      <path id="type_PathItem_" data-name="type &amp;lt;PathItem&amp;gt;" d="m14.7217,43.6776c-1.9545.1643-4.5947.1643-7.4117.1643-2.6401,0-5.2795-.0885-7.1452-.3413-.1648,1.5297-.1648,2.8823-.1648,4.3235,0,12.8062,10.6478,18.9123,36.779,18.9123s35.0789-6.9532,35.0789-19.7593-8.0845-17.5595-32.7812-19.5949c-21.1949-1.6055-23.6694-4.412-23.6694-8.824,0-4.7534,4.4291-7.3828,19.494-7.3828,17.1075,0,21.2829,3.1351,21.2829,9.2412,0,.6827,0,1.694-.0888,2.541,1.6121-.0885,4.3403-.1644,7.0692-.1644s5.2795.0885,6.8916.1644c.0888-1.4412.0888-2.718.0888-4.0707C70.145,6.1692,61.0325.2275,35.2437.2275,10.9775.2275.9385,7.3448.9385,19.0512s7.0692,17.471,33.2012,19.3294c19.8364,1.3527,23.4918,3.9063,23.4918,9.1527s-4.4298,7.8885-21.03,7.8885-21.8797-2.8823-21.8797-10.0882v-1.694.0379Z" style="fill: #fff;"/>
    </a>
    <a xlink:href="61.0780392156863">
      <path id="type_PathItem_-2" data-name="type &amp;lt;PathItem&amp;gt;" d="m137.4346,1.6941c.3424,6.2703.4313,17.6354.4313,25.4354-6.8149.2528-14.8993.2528-22.7302.2528s-15.7498,0-22.5653-.2528c0-7.8.0888-19.1651.3424-25.4354h-15.3185c.432,8.6471.3432,18.4065.3432,31.8069s.0888,22.6416-.3432,31.807h15.3185c-.2536-6.6117-.3424-17.6354-.3424-25.0182,6.8156-.2529,14.8113-.1644,22.5653-.1644s15.9153-.0885,22.7302.1644c0,7.3828-.0888,18.318-.4313,25.0182h15.4073c-.3432-9.1527-.432-18.3181-.432-31.807s.0888-23.1472.432-31.8069h-15.4073Z" style="fill: #fff;"/>
    </a>
    <a xlink:href="61.0780392156863">
      <path id="type_PathItem_-3" data-name="type &amp;lt;PathItem&amp;gt;" d="m161.7641,1.6941c.3424,7.8885.3424,18.318.3424,31.8069s0,23.5771-.3424,31.807h66.0711c-.0888-1.4412-.0888-3.9064-.0888-5.6762,0-2.0353,0-4.5764.0888-6.0175-15.7505.1644-37.5414.2528-50.9942.2528v-15.8529c15.9153,0,37.0334.1644,49.979.3413,0-2.5409,0-7.977.0888-10.341-13.1104.1644-34.0508.1644-50.055.1644v-15.6001c13.364,0,34.5716.0885,50.9942.2529-.0888-1.3527-.0888-3.9064-.0888-5.7647s0-4.0707.0888-5.3475h-66.0719l-.012-.0253Z" style="fill: #fff;"/>
    </a>
    <a xlink:href="61.0780392156863">
      <path id="type_PathItem_-4" data-name="type &amp;lt;PathItem&amp;gt;" d="m235.2973,1.6941c.2544,6.106.2544,16.7884.2544,31.8069,0,13.5647-.2544,25.7009-.2544,31.807h55.0049c-.0888-2.1239-.0888-4.2351-.0888-6.4474s0-4.3235.0888-6.3588c-12.9456.3413-28.949.2529-40.1808.2529-.0888-5.4233-.0888-12.7177-.0888-19.3294.0888-14.6771.2536-26.6237.5072-31.7184h-15.2425v-.0126Z" style="fill: #fff;"/>
    </a>
    <a xlink:href="61.0780392156863">
      <path id="type_PathItem_-5" data-name="type &amp;lt;PathItem&amp;gt;" d="m292.0407,1.6941c.2536,6.106.2536,16.7884.2536,31.8069,0,13.5647-.2536,25.7009-.2536,31.807h55.0041c-.0888-2.1239-.0888-4.2351-.0888-6.4474s0-4.3235.0888-6.3588c-12.9448.3413-28.9489.2529-40.1808.2529-.0888-5.4233-.0888-12.7177-.0888-19.3294.0888-14.6771.2536-26.6237.508-31.7184h-15.2425v-.0126Z" style="fill: #fff;"/>
    </a>
    <path id="type_CompoundPathItem_" data-name="type &amp;lt;CompoundPathItem&amp;gt;" d="m386.756,36.9775c-9.7086,0-19.0748-.1643-23.1614-.1643V13.3246c6.2188-.1644,18.7323-.2529,23.5806-.2529,12.1711,0,17.3618,3.0467,17.3618,11.9592s-4.8482,11.9592-17.7931,11.9592l.012-.0126ZM348.6945,1.6941c.3432,8.7355.3432,18.318.3432,31.8069s0,22.6416-.3432,31.807h15.6617c-.3432-4.5764-.508-10.4296-.5968-17.1297,11.2319.3413,16.9434.3413,25.8016.3413,18.9867,0,29.3682-7.1174,29.3682-23.6655,0-17.5595-10.7246-23.1473-29.1145-23.1473h-41.1201v-.0126Z" style="fill: #fff;"/>
    <path id="type_CompoundPathItem_-2" data-name="type &amp;lt;CompoundPathItem&amp;gt;" d="m437.1285,33.0712c0-6.3588,0-13.1476.0888-19.9236,6.726-.2529,20.2676-.3413,25.2047-.3413,12.0063,0,16.689,2.2881,16.689,10.0124,0,6.7001-4.7715,10.518-16.0034,10.518s-21.6261-.0885-25.9664-.2529l-.0128-.0126Zm37.7183,5.9417c12.768-1.7825,18.4787-7.7115,18.4787-18.4065,0-13.1475-9.6198-18.9122-27.2481-18.9122h-43.3282c.1648,9.1527.2536,18.318.2536,31.8069s-.1648,22.5531-.2536,31.807h15.4073c-.508-5.2591-.7617-12.8063-.9392-21.4533h24.7735c11.6631,0,13.2752,2.718,17.3618,14.7531,1.6114,5.8535,1.9545,6.7002,4.6827,6.7002h13.6184c-1.1936-2.4652-2.7289-7.1174-4.7723-12.9705-3.325-9.2412-7.4116-11.8708-18.0474-13.059v-.2529l.0128-.0126Z" style="fill: #fff;"/>
    <path id="type_CompoundPathItem_-3" data-name="type &amp;lt;CompoundPathItem&amp;gt;" d="m578.3322,33.0711c0-21.7061-15.3185-33.0711-41.3737-33.0711s-41.2089,11.365-41.2089,33.0711,14.3033,33.9182,41.2089,33.9182,41.3737-12.4649,41.3737-33.9182Zm-41.2849,21.6302c-17.6283,0-26.4744-7.3829-26.4744-21.3648s8.9349-21.036,26.4744-21.036,26.3984,7.0414,26.3984,21.036-8.7701,21.3648-26.3984,21.3648Z" style="fill: #fff;"/>
    <path id="type_CompoundPathItem_-4" data-name="type &amp;lt;CompoundPathItem&amp;gt;" d="m661.179,33.0711c0-21.7061-15.3156-33.0711-41.3707-33.0711s-41.2096,11.365-41.2096,33.0711,14.3033,33.9182,41.2096,33.9182,41.3707-12.4649,41.3707-33.9182Zm-41.2804,21.6302c-17.6305,0-26.4759-7.3829-26.4759-21.3648s8.9342-21.036,26.4759-21.036,26.3938,7.0414,26.3938,21.036-8.7679,21.3648-26.3938,21.3648Z" style="fill: #fff;"/>
    <a xlink:href="61.0780392156863">
      <path id="type_PathItem_-6" data-name="type &amp;lt;PathItem&amp;gt;" d="m665.8752,1.6941c.2559,8.5712.2559,18.318.2559,31.8069s-.0903,23.0714-.2559,31.807h15.323c-.2559-5.4234-.4366-13.1476-.5118-20.6947,17.197,0,34.4844.1644,49.0397.1644,0-2.9708,0-8.5712.1656-11.6179-14.736.2528-31.933.2528-49.2956.2528V13.9946c14.2167,0,32.0083.0885,50.0557.1644-.0903-1.7825-.1656-4.3235-.1656-6.6117,0-1.9468.0903-4.235.1656-5.8532h-64.7842.0075Z" style="fill: #fff;"/>
    </a>
  </g>
</svg>