<?xml version="1.0" encoding="utf-8"?>
<!-- Generator: Adobe Illustrator 27.8.1, SVG Export Plug-In . SVG Version: 6.00 Build 0)  -->
<svg version="1.1" id="Layer_1" xmlns="http://www.w3.org/2000/svg" xmlns:xlink="http://www.w3.org/1999/xlink" x="0px" y="0px"
	 viewBox="0 0 864 91.8" enable-background="new 0 0 864 91.8" xml:space="preserve">
<g>
	<g id="type_00000049903684961010469530000000810699793695351430_">
		<a xlink:href="61.0780392156863" >
			<path id="type__x3C_PathItem_x3E__00000065764040127797947710000002545008750646168982_" d="M148.1,56.1c-2,0.2-4.6,0.2-7.4,0.2
				c-2.6,0-5.3-0.1-7.1-0.3c-0.2,1.5-0.2,2.9-0.2,4.3c0,12.8,10.6,18.9,36.8,18.9c26.1,0,35.1-7,35.1-19.8s-8.1-17.6-32.8-19.6
				c-21.2-1.6-23.7-4.4-23.7-8.8c0-4.8,4.4-7.4,19.5-7.4c17.1,0,21.3,3.1,21.3,9.2c0,0.7,0,1.7-0.1,2.5c1.6-0.1,4.3-0.2,7.1-0.2
				c2.7,0,5.3,0.1,6.9,0.2c0.1-1.4,0.1-2.7,0.1-4.1c0-12.7-9.1-18.7-34.9-18.7c-24.3,0-34.3,7.1-34.3,18.8
				c0,11.7,7.1,17.5,33.2,19.3c19.8,1.4,23.5,3.9,23.5,9.2c0,5.2-4.4,7.9-21,7.9s-21.9-2.9-21.9-10.1V56.1L148.1,56.1z"/>
		</a>
		<a xlink:href="61.0780392156863" >
			<path id="type__x3C_PathItem_x3E__00000147933990882160854490000001397275294786331776_" d="M270.8,14.1
				c0.3,6.3,0.4,17.6,0.4,25.4c-6.8,0.3-14.9,0.3-22.7,0.3c-7.8,0-15.7,0-22.6-0.3c0-7.8,0.1-19.2,0.3-25.4h-15.3
				c0.4,8.6,0.3,18.4,0.3,31.8s0.1,22.6-0.3,31.8h15.3c-0.3-6.6-0.3-17.6-0.3-25c6.8-0.3,14.8-0.2,22.6-0.2c7.8,0,15.9-0.1,22.7,0.2
				c0,7.4-0.1,18.3-0.4,25h15.4c-0.3-9.2-0.4-18.3-0.4-31.8s0.1-23.1,0.4-31.8H270.8z"/>
		</a>
		<a xlink:href="61.0780392156863" >
			<path id="type__x3C_PathItem_x3E__00000182493980329192182450000007539891801965485469_" d="M295.1,14.1
				c0.3,7.9,0.3,18.3,0.3,31.8s0,23.6-0.3,31.8h66.1c-0.1-1.4-0.1-3.9-0.1-5.7c0-2,0-4.6,0.1-6c-15.8,0.2-37.5,0.3-51,0.3V50.4
				c15.9,0,37,0.2,50,0.3c0-2.5,0-8,0.1-10.3c-13.1,0.2-34.1,0.2-50.1,0.2V25c13.4,0,34.6,0.1,51,0.3c-0.1-1.4-0.1-3.9-0.1-5.8
				c0-1.9,0-4.1,0.1-5.3L295.1,14.1L295.1,14.1z"/>
		</a>
		<a xlink:href="61.0780392156863" >
			<path id="type__x3C_PathItem_x3E__00000176008838230931069540000004637850533907634878_" d="M368.6,14.1
				c0.3,6.1,0.3,16.8,0.3,31.8c0,13.6-0.3,25.7-0.3,31.8h55c-0.1-2.1-0.1-4.2-0.1-6.4c0-2.2,0-4.3,0.1-6.4
				c-12.9,0.3-28.9,0.3-40.2,0.3c-0.1-5.4-0.1-12.7-0.1-19.3c0.1-14.7,0.3-26.6,0.5-31.7L368.6,14.1L368.6,14.1z"/>
		</a>
		<a xlink:href="61.0780392156863" >
			<path id="type__x3C_PathItem_x3E__00000148651080940157630180000014265744613880693914_" d="M425.4,14.1
				c0.3,6.1,0.3,16.8,0.3,31.8c0,13.6-0.3,25.7-0.3,31.8h55c-0.1-2.1-0.1-4.2-0.1-6.4c0-2.2,0-4.3,0.1-6.4
				c-12.9,0.3-28.9,0.3-40.2,0.3c-0.1-5.4-0.1-12.7-0.1-19.3c0.1-14.7,0.3-26.6,0.5-31.7L425.4,14.1L425.4,14.1z"/>
		</a>
		<path id="type__x3C_CompoundPathItem_x3E__00000034067630221984740820000010558382168774873248_" d="M520.1,49.4
			c-9.7,0-19.1-0.2-23.2-0.2V25.7c6.2-0.2,18.7-0.3,23.6-0.3c12.2,0,17.4,3,17.4,12S533,49.4,520.1,49.4L520.1,49.4z M482,14.1
			c0.3,8.7,0.3,18.3,0.3,31.8s0,22.6-0.3,31.8h15.7c-0.3-4.6-0.5-10.4-0.6-17.1c11.2,0.3,16.9,0.3,25.8,0.3c19,0,29.4-7.1,29.4-23.7
			c0-17.6-10.7-23.1-29.1-23.1L482,14.1L482,14.1z"/>
		<path id="type__x3C_CompoundPathItem_x3E__00000179623967100935539300000007498949930179851176_" d="M570.5,45.5
			c0-6.4,0-13.1,0.1-19.9c6.7-0.3,20.3-0.3,25.2-0.3c12,0,16.7,2.3,16.7,10c0,6.7-4.8,10.5-16,10.5S574.8,45.7,570.5,45.5
			L570.5,45.5z M608.2,51.4c12.8-1.8,18.5-7.7,18.5-18.4c0-13.1-9.6-18.9-27.2-18.9h-43.3c0.2,9.2,0.3,18.3,0.3,31.8
			s-0.2,22.6-0.3,31.8h15.4c-0.5-5.3-0.8-12.8-0.9-21.5h24.8c11.7,0,13.3,2.7,17.4,14.8c1.6,5.9,2,6.7,4.7,6.7H631
			c-1.2-2.5-2.7-7.1-4.8-13c-3.3-9.2-7.4-11.9-18-13.1L608.2,51.4L608.2,51.4z"/>
		<path id="type__x3C_CompoundPathItem_x3E__00000060017947720612490960000014892473094566106281_" d="M711.7,45.5
			c0-21.7-15.3-33.1-41.4-33.1s-41.2,11.4-41.2,33.1c0,21.7,14.3,33.9,41.2,33.9C697.2,79.4,711.7,66.9,711.7,45.5z M670.4,67.1
			c-17.6,0-26.5-7.4-26.5-21.4s8.9-21,26.5-21s26.4,7,26.4,21S688,67.1,670.4,67.1z"/>
		<path id="type__x3C_CompoundPathItem_x3E__00000179635742004946153900000014828754145025839797_" d="M794.5,45.5
			c0-21.7-15.3-33.1-41.4-33.1c-26.1,0-41.2,11.4-41.2,33.1c0,21.7,14.3,33.9,41.2,33.9C780,79.4,794.5,66.9,794.5,45.5z
			 M753.2,67.1c-17.6,0-26.5-7.4-26.5-21.4s8.9-21,26.5-21c17.5,0,26.4,7,26.4,21S770.9,67.1,753.2,67.1z"/>
		<a xlink:href="61.0780392156863" >
			<path id="type__x3C_PathItem_x3E__00000057145924468481224390000015226167390980779649_" d="M799.2,14.1
				c0.3,8.6,0.3,18.3,0.3,31.8s-0.1,23.1-0.3,31.8h15.3c-0.3-5.4-0.4-13.1-0.5-20.7c17.2,0,34.5,0.2,49,0.2c0-3,0-8.6,0.2-11.6
				c-14.7,0.3-31.9,0.3-49.3,0.3V26.4c14.2,0,32,0.1,50.1,0.2c-0.1-1.8-0.2-4.3-0.2-6.6c0-1.9,0.1-4.2,0.2-5.9H799.2L799.2,14.1z"/>
		</a>
	</g>
	<a xlink:href="61.0780392156863" >
		<path id="logoMark_00000121977832751678693300000006476341758178768562_" fill="#1B6AFE" d="M86.1,50.9l-8,7.9l1.8,3h-12l4.9-4.9
			l16.2-16.2c2.7-2.7,3.8-6.6,2.8-10.3c-1-3.7-3.9-6.6-7.6-7.6L78,21.2v11.2l3.4,0.9L75.7,39l-2.8,2.9V12c0-3.8-2-7.4-5.4-9.3
			c-3.3-1.9-7.4-1.9-10.7,0L51.1,6l8,7.9l3-1.8v12l-8-8L41,3.1c-2.7-2.7-6.7-3.8-10.4-2.8c-3.7,1-6.6,3.9-7.6,7.6l-1.7,6.3h11.3
			l0.9-3.4l8.5,8.5h-3h-8.3H12.1c-3.8,0-7.4,2-9.3,5.3c-1.9,3.3-1.9,7.4,0,10.7L6,40.9l8-7.9l-1.8-3h12.2l-5.1,4.9l-3.1,3.1L3.1,51
			c-2.7,2.7-3.8,6.6-2.8,10.3c1,3.7,3.9,6.6,7.6,7.6l6.3,1.7V59.4l-3.4-0.9l8.5-8.5l0,7v22.8c0,3.8,2,7.4,5.4,9.3
			C28,91,32.1,91,35.5,89l5.6-3.2l-8-7.9l-3,1.8V36.7l16-9.2l6.2,3.5l3.7,2.1l6.2,3.5v18.4l-6.2,3.6l-3.6,2.1l-6.2,3.6l-12.1-7v14.1
			l17.3,17.3c2.7,2.7,6.7,3.8,10.4,2.8c3.7-1,6.6-3.9,7.6-7.6l1.7-6.3H59.6L58.7,81l-8.5-8.5l7,0h22.9c3.8,0,7.4-2,9.3-5.3
			c1.9-3.3,1.9-7.4,0-10.7L86.1,50.9L86.1,50.9z"/>
	</a>
</g>
<g>
	<g>
		<defs>
			<rect id="SVGID_1_" x="179.7" y="110.4" width="473" height="131"/>
		</defs>
		<clipPath id="SVGID_00000016070928772293115250000013657329439447482519_">
			<use xlink:href="#SVGID_1_"  overflow="visible"/>
		</clipPath>
		<g clip-path="url(#SVGID_00000016070928772293115250000013657329439447482519_)">
			<defs>
				<filter id="Adobe_OpacityMaskFilter" filterUnits="userSpaceOnUse" x="179.7" y="110.4" width="473" height="131">
					<feColorMatrix  type="matrix" values="1 0 0 0 0  0 1 0 0 0  0 0 1 0 0  0 0 0 1 0"/>
				</filter>
			</defs>
			
				<mask maskUnits="userSpaceOnUse" x="179.7" y="110.4" width="473" height="131" id="mask0_4282_1013_00000009581442460083345530000016461930455401596043_">
				<path fill="#FFFFFF" filter="url(#Adobe_OpacityMaskFilter)" d="M695.6,28.4H136.9v294.9h558.6V28.4z"/>
			</mask>
			<g mask="url(#mask0_4282_1013_00000009581442460083345530000016461930455401596043_)">
				<path fill="#FFFFFF" d="M236.2,110.4l-56.5,32.7v65.5l18,10.4v-14.6l-5.4-3.1v-50.9l43.9-25.5l43.9,25.5v50.9l-43.9,25.5
					l-11.5-6.7v14.6l11.5,6.7l56.5-32.7v-65.5L236.2,110.4z"/>
				<path fill="#F8B529" d="M236.2,139.5l-31.4,18.2v65.5l12.6,7.3v-29.2l18.8,10.9l31.4-18.2v-36.3L236.2,139.5z M255,186.7
					l-18.8,10.9l-18.8-10.9V165l18.8-10.9L255,165V186.7z"/>
				<path fill="#FFFFFF" d="M515.2,218.4c-1.5,0.8-3.1,1.2-4.7,1.2c-3.4,0-6.1-2.2-6.1-6.8v-7.1h-3.1v-3.2h3.1v-3.8l3.4-0.8v4.6h6.8
					v3.2h-6.8v6.9c0,2.4,1.1,3.8,3.3,3.8c1.2-0.1,2.4-0.4,3.5-0.8L515.2,218.4z"/>
				<path fill="#FFFFFF" d="M531.8,211.9h-13.5c0.3,3.1,2.4,4.8,5.2,4.8c2,0,3.7-0.8,4.4-2.5h3.5c-1.3,3.7-4.5,5.5-8,5.5
					c-5,0-8.6-3.6-8.6-8.7c0-5,3.6-8.7,8.6-8.7C528.7,202.2,532.1,206.4,531.8,211.9z M518.4,209.1h9.6c-0.5-2.3-2.2-3.9-4.7-3.9
					c-1.1,0-2.3,0.3-3.2,1.1C519.3,207,518.7,208,518.4,209.1z"/>
				<path fill="#FFFFFF" d="M532.3,210.9c0-5,3.7-8.7,8.6-8.7c3.9,0,7.4,2.4,8.2,6.4h-3.5c-0.6-2.1-2.5-3.2-4.6-3.2
					c-3.1,0-5.2,2.3-5.2,5.5c0,3.2,2.2,5.5,5.2,5.5c2.2,0,4-1.2,4.7-3.3h3.5c-0.8,4.1-4.3,6.5-8.2,6.5
					C535.9,219.6,532.3,215.9,532.3,210.9z"/>
				<path fill="#FFFFFF" d="M565,208.7v10.5h-3.4v-9.8c0-2.6-1.2-3.9-3.7-3.9c-2.9,0-4.5,1.9-4.5,5.1v8.6h-3.4v-23.3h3.4v9.4
					c0.6-1,1.4-1.8,2.4-2.3s2.1-0.8,3.2-0.8C562.8,202.2,565,204.7,565,208.7z"/>
				<path fill="#FFFFFF" d="M589.7,202.6v16.5c0,5-3.1,8.2-8,8.2c-4,0-7.6-2.1-8.3-6.2h3.5c0.6,2.1,2.4,3.2,4.7,3.2
					c3,0,4.7-1.7,4.7-5v-2.9c-0.6,1-1.5,1.8-2.5,2.3c-1,0.5-2.1,0.8-3.3,0.8c-4.4,0-7.7-3.6-7.7-8.6c0-5,3.3-8.6,7.7-8.6
					c1.2,0,2.3,0.3,3.3,0.8c1,0.6,1.9,1.4,2.5,2.4v-2.9L589.7,202.6z M586.3,210.8c0-3.1-2.2-5.3-5.1-5.3c-2.9,0-4.9,2.2-4.9,5.3
					c0,3.1,2.1,5.3,4.9,5.3C584.1,216.2,586.3,214,586.3,210.8L586.3,210.8z"/>
				<path fill="#FFFFFF" d="M601.4,202.3v3.5c-0.3,0-0.7-0.1-1-0.1c-3.1,0-5.5,1.8-5.5,5.9v7.6h-3.4v-16.7h3.4v3.3
					c0.4-1.1,1.2-2.1,2.2-2.7c1-0.7,2.2-1,3.3-0.9C600.7,202.2,601,202.3,601.4,202.3z"/>
				<path fill="#FFFFFF" d="M618.2,210.9c0,1.7-0.5,3.4-1.5,4.8c-1,1.4-2.3,2.5-3.9,3.2c-1.6,0.6-3.3,0.8-5,0.5
					c-1.7-0.3-3.2-1.2-4.4-2.4c-1.2-1.2-2-2.8-2.3-4.4c-0.3-1.7-0.2-3.4,0.5-5c0.7-1.6,1.8-2.9,3.2-3.9c1.4-0.9,3.1-1.5,4.8-1.5
					c2.2,0,4.4,0.8,6,2.4c1.6,1.6,2.5,3.7,2.6,6C618.2,210.7,618.2,210.8,618.2,210.9z M604.4,210.9c0,3.2,2.3,5.4,5.2,5.4
					s5.2-2.2,5.2-5.4c0-3.2-2.3-5.4-5.2-5.4C606.7,205.5,604.4,207.7,604.4,210.9L604.4,210.9z"/>
				<path fill="#FFFFFF" d="M634,202.6v16.7h-3.4v-2.8c-0.6,1-1.4,1.8-2.3,2.3c-1,0.6-2.1,0.8-3.2,0.8c-3.7,0-5.9-2.5-5.9-6.5v-10.5
					h3.4v9.8c0,2.6,1.1,3.9,3.6,3.9c2.8,0,4.4-1.9,4.4-5.1v-8.6H634z"/>
				<path fill="#FFFFFF" d="M652.7,210.9c0,5.1-3.2,8.7-7.7,8.7c-1.2,0-2.3-0.3-3.3-0.8c-1-0.6-1.9-1.4-2.5-2.3v10.4h-3.4v-24.2h3.4
					v2.8c0.6-1,1.5-1.8,2.5-2.4c1-0.6,2.2-0.9,3.3-0.8C649.4,202.2,652.7,205.8,652.7,210.9z M649.3,210.9c0-3.2-2.1-5.4-5-5.4
					c-2.9,0-5.1,2.3-5.1,5.4c0,3.2,2.2,5.4,5.1,5.4C647.3,216.4,649.3,214.1,649.3,210.9L649.3,210.9z"/>
				<path fill="#FFFFFF" d="M362.8,166.7c0,13.6-8.6,23.2-20.4,23.2c-3.1,0.1-6.1-0.7-8.8-2.2c-2.7-1.5-5-3.6-6.6-6.2V209h-9.1
					v-64.5h9.1v7.6c1.6-2.7,3.9-4.8,6.6-6.4c2.7-1.5,5.8-2.3,8.9-2.2C354,143.5,362.8,153.1,362.8,166.7z M353.6,166.7
					c0-8.5-5.5-14.4-13.2-14.4s-13.6,6-13.6,14.4c0,8.6,5.9,14.4,13.6,14.4C348.1,181.1,353.6,175.2,353.6,166.7z"/>
				<path fill="#FFFFFF" d="M390.4,143.8v9.3c-0.9-0.1-1.8-0.2-2.7-0.2c-8.3,0-14.6,4.7-14.6,15.6v20.3h-9.1v-44.4h9.1v8.8
					c2.6-6.2,7.7-9.8,14.7-9.8C388.6,143.5,389.5,143.6,390.4,143.8z"/>
				<path fill="#FFFFFF" d="M433.1,166.7c0,13.3-10,23.2-22.9,23.2c-12.8,0-22.9-9.9-22.9-23.2c0-13.4,10.3-23.1,22.9-23.1
					C422.9,143.5,433.1,153.3,433.1,166.7z M396.5,166.7c0,8.6,6,14.4,13.7,14.4c7.7,0,13.7-5.9,13.7-14.4c0-8.6-6.1-14.4-13.7-14.4
					C402.6,152.2,396.5,158.1,396.5,166.7L396.5,166.7z"/>
				<path fill="#F8B529" d="M456,141.4l-17.9,47.4h-9.6l21.8-56.5h11.6l33.6,87.5h-9.6L456,141.4z"/>
				<path fill="#FFFFFF" d="M479,166.7c0-13.2,9.8-23.1,23-23.1c10.4,0,19.7,6.4,21.7,17.1h-9.4c-1.7-5.6-6.6-8.6-12.3-8.6
					c-8.2,0-13.8,6.1-13.8,14.7c0,8.6,5.8,14.7,13.7,14.7c5.8,0,10.7-3.2,12.4-8.7h9.4c-2.1,11-11.4,17.2-21.8,17.2
					C488.8,189.8,479,179.9,479,166.7z"/>
				<path fill="#FFFFFF" d="M557.6,186.6c-2.4,1.5-7.6,3.2-12.6,3.2c-9.1,0-16.1-5.7-16.1-18V153h-8.2v-8.5h8.2v-10.1l9.1-2v12.1
					h18.2v8.5h-18.2v18.3c0,6.5,3,10,8.7,10c2.8,0,5.9-1,9.4-2.2L557.6,186.6z"/>
				<path fill="#FFFFFF" d="M568.3,130.1c0,3.3-2.5,5.7-5.9,5.7c-3.3,0-5.9-2.4-5.9-5.7c0-3.2,2.6-5.6,5.9-5.6
					C565.8,124.5,568.3,126.8,568.3,130.1z M557.8,144.5h9.1v44.4h-9.1V144.5z"/>
				<path fill="#FFFFFF" d="M608.9,144.5L593,188.9h-11L566,144.5h9.6l11.7,34.8l11.8-34.8L608.9,144.5z"/>
				<path fill="#FFFFFF" d="M649.1,169.2h-35.9c0.7,8.1,6.4,12.7,13.8,12.7c5.3,0,9.7-2.3,11.8-6.6h9.4
					c-3.5,9.9-11.9,14.6-21.3,14.6c-13.4,0-23-9.7-23-23.1c0-13.4,9.5-23.2,22.8-23.2C641,143.5,650,154.6,649.1,169.2z
					 M613.7,161.8h25.7c-1.4-6.1-5.9-10.3-12.6-10.3C619.9,151.4,615.2,155.8,613.7,161.8z"/>
			</g>
		</g>
	</g>
	<path fill="#FFFFFF" d="M249.4,300.6v5.7h-1.8v-14.2h4.6c0.6,0,1.2,0.1,1.8,0.3c0.6,0.2,1.1,0.5,1.5,0.8c0.4,0.4,0.8,0.8,1,1.3
		c0.3,0.5,0.4,1.1,0.4,1.8c0,0.7-0.1,1.3-0.4,1.8c-0.2,0.5-0.6,1-1,1.3c-0.4,0.4-0.9,0.6-1.5,0.8c-0.6,0.2-1.2,0.3-1.8,0.3H249.4z
		 M249.4,299.2h2.8c0.4,0,0.8-0.1,1.2-0.2c0.4-0.1,0.7-0.3,0.9-0.5c0.3-0.2,0.5-0.5,0.6-0.8c0.1-0.3,0.2-0.7,0.2-1.2
		c0-0.4-0.1-0.8-0.2-1.2c-0.1-0.3-0.3-0.6-0.6-0.9c-0.3-0.2-0.6-0.4-0.9-0.6c-0.4-0.1-0.7-0.2-1.2-0.2h-2.8V299.2z M258.9,301
		c0-0.8,0.1-1.5,0.3-2.1c0.2-0.7,0.5-1.2,1-1.7c0.4-0.5,0.9-0.9,1.5-1.1c0.6-0.3,1.3-0.4,2-0.4c0.7,0,1.4,0.1,2,0.4
		c0.6,0.3,1.1,0.7,1.5,1.1c0.4,0.5,0.7,1.1,0.9,1.7c0.2,0.7,0.3,1.4,0.3,2.1v0.2c0,0.8-0.1,1.5-0.3,2.1c-0.2,0.7-0.5,1.2-0.9,1.7
		c-0.4,0.5-0.9,0.9-1.5,1.1c-0.6,0.3-1.3,0.4-2,0.4c-0.7,0-1.4-0.1-2-0.4c-0.6-0.3-1.1-0.7-1.5-1.1c-0.4-0.5-0.7-1-1-1.7
		c-0.2-0.7-0.3-1.4-0.3-2.1V301z M260.7,301.2c0,0.5,0.1,1,0.2,1.5c0.1,0.5,0.3,0.9,0.6,1.2c0.2,0.4,0.6,0.6,0.9,0.9
		c0.4,0.2,0.8,0.3,1.3,0.3c0.5,0,0.9-0.1,1.3-0.3c0.4-0.2,0.7-0.5,0.9-0.9c0.2-0.4,0.4-0.8,0.6-1.2c0.1-0.5,0.2-1,0.2-1.5V301
		c0-0.5-0.1-1-0.2-1.5c-0.1-0.5-0.3-0.9-0.6-1.2c-0.3-0.4-0.6-0.6-0.9-0.9c-0.4-0.2-0.8-0.3-1.3-0.3s-0.9,0.1-1.3,0.3
		c-0.4,0.2-0.7,0.5-0.9,0.9c-0.3,0.4-0.4,0.8-0.6,1.2c-0.1,0.5-0.2,1-0.2,1.5V301.2z M272.5,306.4l-2.2-10.6h1.6l1.2,6.7l0.2,1.5
		l0.3-1.5l1.7-6.7h1.2l1.7,6.7l0.3,1.7l0.3-1.7l1.2-6.7h1.6l-2.2,10.6h-1.4l-1.7-6.5l-0.3-1.6l-0.3,1.6l-1.6,6.5H272.5z
		 M288.1,306.5c-0.7,0-1.4-0.1-2-0.4c-0.6-0.3-1.1-0.6-1.6-1.1c-0.4-0.5-0.8-1-1-1.6c-0.2-0.6-0.4-1.3-0.4-2V301
		c0-0.9,0.1-1.6,0.4-2.3c0.3-0.7,0.6-1.2,1.1-1.7c0.4-0.5,1-0.8,1.5-1.1c0.6-0.2,1.2-0.4,1.8-0.4c0.8,0,1.4,0.1,2,0.4
		c0.6,0.3,1,0.6,1.4,1.1c0.4,0.5,0.7,1,0.8,1.6c0.2,0.6,0.3,1.3,0.3,2.1v0.8h-7.5v0.1c0,0.5,0.1,1,0.3,1.4c0.2,0.4,0.4,0.7,0.7,1
		c0.3,0.3,0.6,0.6,1,0.8c0.4,0.2,0.9,0.3,1.3,0.3c0.6,0,1.2-0.1,1.7-0.4c0.5-0.3,0.9-0.6,1.2-1l1.1,0.9c-0.4,0.5-0.9,1-1.6,1.4
		C290,306.3,289.2,306.5,288.1,306.5z M287.9,297.1c-0.4,0-0.7,0.1-1,0.2c-0.3,0.1-0.6,0.3-0.9,0.6c-0.3,0.3-0.5,0.6-0.7,1
		c-0.2,0.4-0.3,0.8-0.4,1.3h5.7V300c0-0.3-0.1-0.7-0.2-1c-0.1-0.4-0.3-0.7-0.5-1c-0.2-0.3-0.5-0.5-0.8-0.7
		C288.8,297.2,288.4,297.1,287.9,297.1z M302.4,295.6c0.3,0,0.7,0,1,0.1c0.4,0,0.6,0.1,0.8,0.2l-0.2,1.8c-0.4-0.1-0.7-0.1-1-0.2
		c-0.3,0-0.6-0.1-1-0.1c-0.4,0-0.8,0.1-1.2,0.2c-0.4,0.1-0.7,0.3-0.9,0.5c-0.2,0.2-0.5,0.4-0.6,0.7c-0.2,0.3-0.3,0.6-0.4,0.9v6.8
		H297v-10.6h1.7l0.1,1.4l0,0.3c0.4-0.6,0.9-1,1.5-1.4C301,295.8,301.6,295.6,302.4,295.6z M312.2,306.5c-0.7,0-1.4-0.1-2.1-0.4
		c-0.6-0.3-1.1-0.6-1.6-1.1s-0.8-1-1-1.6s-0.4-1.3-0.4-2V301c0-0.9,0.1-1.6,0.4-2.3c0.3-0.7,0.6-1.2,1.1-1.7c0.4-0.5,1-0.8,1.5-1.1
		c0.6-0.2,1.2-0.4,1.8-0.4c0.8,0,1.4,0.1,2,0.4c0.6,0.3,1,0.6,1.4,1.1c0.4,0.5,0.7,1,0.8,1.6c0.2,0.6,0.3,1.3,0.3,2.1v0.8h-7.5v0.1
		c0,0.5,0.1,1,0.3,1.4c0.2,0.4,0.4,0.7,0.7,1c0.3,0.3,0.6,0.6,1,0.8c0.4,0.2,0.8,0.3,1.3,0.3c0.6,0,1.2-0.1,1.7-0.4
		c0.5-0.3,0.9-0.6,1.2-1l1.1,0.9c-0.4,0.5-0.9,1-1.6,1.4C314.1,306.3,313.2,306.5,312.2,306.5z M311.9,297.1c-0.4,0-0.7,0.1-1,0.2
		c-0.3,0.1-0.6,0.3-0.9,0.6c-0.3,0.3-0.5,0.6-0.7,1c-0.2,0.4-0.3,0.8-0.4,1.3h5.7V300c0-0.3-0.1-0.7-0.2-1c-0.1-0.4-0.3-0.7-0.5-1
		c-0.2-0.3-0.5-0.5-0.8-0.7C312.8,297.2,312.4,297.1,311.9,297.1z M319.2,301c0-0.8,0.1-1.5,0.3-2.2c0.2-0.7,0.5-1.2,0.9-1.7
		c0.4-0.5,0.8-0.8,1.3-1.1s1.1-0.4,1.7-0.4c0.6,0,1.2,0.1,1.7,0.3c0.5,0.2,0.9,0.5,1.2,0.9v-5.5h1.8v15h-1.7l-0.1-1.1
		c-0.4,0.4-0.8,0.8-1.3,1c-0.5,0.2-1.1,0.3-1.7,0.3c-0.6,0-1.2-0.1-1.7-0.4c-0.5-0.3-1-0.7-1.3-1.1c-0.4-0.5-0.6-1-0.9-1.7
		c-0.2-0.7-0.3-1.4-0.3-2.1V301z M321,301.2c0,0.5,0.1,1,0.2,1.5c0.1,0.5,0.3,0.9,0.5,1.2c0.2,0.4,0.5,0.6,0.9,0.8
		c0.4,0.2,0.8,0.3,1.3,0.3c0.6,0,1.1-0.1,1.5-0.4c0.4-0.3,0.7-0.6,0.9-1.1v-4.9c-0.2-0.4-0.5-0.8-0.9-1.1c-0.4-0.3-0.9-0.4-1.5-0.4
		c-0.5,0-0.9,0.1-1.3,0.3c-0.4,0.2-0.7,0.5-0.9,0.8c-0.2,0.4-0.4,0.8-0.5,1.2c-0.1,0.5-0.2,1-0.2,1.5V301.2z M352.5,301.2
		c0,0.5,0,0.9-0.1,1.3c-0.1,0.4-0.2,0.8-0.3,1.2c-0.2,0.5-0.4,0.9-0.7,1.3c-0.3,0.4-0.6,0.7-1,1c-0.3,0.2-0.6,0.3-0.9,0.4
		c-0.3,0.1-0.7,0.1-1.1,0.1c-0.5,0-0.9-0.1-1.2-0.2c-0.4-0.1-0.7-0.3-1-0.5c-0.1-0.1-0.3-0.2-0.4-0.3s-0.3-0.3-0.4-0.4l-0.1,1.2
		h-1.7v-15h1.8v5.6c0.2-0.2,0.3-0.4,0.5-0.5c0.2-0.2,0.4-0.3,0.6-0.4c0.3-0.1,0.5-0.2,0.9-0.3c0.3-0.1,0.7-0.1,1-0.1
		c0.5,0,0.9,0.1,1.3,0.2s0.7,0.3,1,0.5c0.3,0.2,0.5,0.5,0.8,0.8c0.2,0.3,0.4,0.6,0.6,1c0.2,0.4,0.3,0.9,0.4,1.4
		c0.1,0.5,0.1,1,0.1,1.6V301.2z M350.7,301c0-0.3,0-0.7-0.1-1c0-0.3-0.1-0.6-0.2-0.9c-0.1-0.3-0.3-0.7-0.5-0.9
		c-0.2-0.3-0.4-0.5-0.7-0.7c-0.2-0.1-0.4-0.2-0.6-0.3c-0.2-0.1-0.5-0.1-0.8-0.1c-0.3,0-0.6,0-0.9,0.1c-0.3,0.1-0.5,0.2-0.7,0.3
		c-0.2,0.1-0.4,0.3-0.6,0.5c-0.2,0.2-0.3,0.4-0.4,0.6v4.6c0.1,0.2,0.3,0.5,0.4,0.7c0.2,0.2,0.3,0.4,0.6,0.5c0.2,0.2,0.4,0.3,0.7,0.4
		c0.3,0.1,0.5,0.1,0.9,0.1c0.3,0,0.6,0,0.8-0.1c0.2-0.1,0.5-0.2,0.7-0.3c0.3-0.2,0.5-0.4,0.7-0.7c0.2-0.3,0.3-0.6,0.4-0.9
		c0.1-0.3,0.1-0.5,0.2-0.8c0-0.3,0.1-0.6,0.1-0.9V301z M356.4,310.6c-0.2,0-0.4,0-0.6-0.1c-0.2,0-0.4-0.1-0.5-0.1l0.3-1.5
		c0.2,0,0.3,0,0.5,0c0.2,0,0.3,0,0.4,0c0.2,0,0.5-0.1,0.7-0.2c0.2-0.1,0.4-0.3,0.6-0.5c0.2-0.2,0.3-0.4,0.4-0.6
		c0.1-0.2,0.2-0.4,0.3-0.5l0.7-1.4l-4.6-10.1h2l2.9,6.8l0.5,1.3l0.5-1.2l2.7-6.9h2l-5.4,12.2c-0.1,0.3-0.3,0.6-0.5,0.9
		c-0.2,0.3-0.4,0.6-0.7,0.9c-0.3,0.3-0.6,0.5-1,0.7C357.3,310.5,356.9,310.6,356.4,310.6z"/>
	<g>
		<path fill="#1B6AFE" d="M424.9,300.1c-0.6,0.1-1.5,0.1-2.4,0.1c-0.8,0-1.7,0-2.3-0.1c-0.1,0.5-0.1,0.9-0.1,1.4c0,4,3.4,6,11.7,6
			c8.3,0,11.2-2.2,11.2-6.2c0-4-2.6-5.5-10.4-6.2c-6.7-0.5-7.5-1.4-7.5-2.8c0-1.5,1.4-2.3,6.2-2.3c5.4,0,6.8,1,6.8,2.9
			c0,0.2,0,0.5,0,0.8c0.5,0,1.4-0.1,2.2-0.1c0.9,0,1.7,0,2.2,0.1c0-0.5,0-0.9,0-1.3c0-4-2.9-5.9-11.1-5.9c-7.7,0-10.9,2.2-10.9,5.9
			c0,3.7,2.2,5.5,10.6,6.1c6.3,0.4,7.5,1.2,7.5,2.9c0,1.7-1.4,2.5-6.7,2.5c-5.3,0-7-0.9-7-3.2V300.1L424.9,300.1z"/>
		<path fill="#1B6AFE" d="M463.9,286.8c0.1,2,0.1,5.6,0.1,8c-2.2,0.1-4.7,0.1-7.2,0.1c-2.5,0-5,0-7.2-0.1c0-2.5,0-6.1,0.1-8h-4.9
			c0.1,2.7,0.1,5.8,0.1,10s0,7.2-0.1,10h4.9c-0.1-2.1-0.1-5.6-0.1-7.9c2.2-0.1,4.7-0.1,7.2-0.1s5.1,0,7.2,0.1c0,2.3,0,5.8-0.1,7.9
			h4.9c-0.1-2.9-0.1-5.8-0.1-10c0-4.3,0-7.3,0.1-10H463.9z"/>
		<path fill="#1B6AFE" d="M471.7,286.8c0.1,2.5,0.1,5.8,0.1,10c0,4.3,0,7.4-0.1,10h21c0-0.5,0-1.2,0-1.8c0-0.6,0-1.4,0-1.9
			c-5,0.1-11.9,0.1-16.2,0.1v-5c5.1,0,11.8,0.1,15.9,0.1c0-0.8,0-2.5,0-3.3c-4.2,0.1-10.8,0.1-15.9,0.1v-4.9c4.3,0,11,0,16.2,0.1
			c0-0.4,0-1.2,0-1.8s0-1.3,0-1.7L471.7,286.8L471.7,286.8z"/>
		<path fill="#1B6AFE" d="M495.1,286.8c0.1,1.9,0.1,5.3,0.1,10c0,4.3-0.1,8.1-0.1,10h17.5c0-0.7,0-1.3,0-2c0-0.7,0-1.4,0-2
			c-4.1,0.1-9.2,0.1-12.8,0.1c0-1.7,0-4,0-6.1c0-4.6,0.1-8.4,0.2-10L495.1,286.8L495.1,286.8z"/>
		<path fill="#1B6AFE" d="M513.1,286.8c0.1,1.9,0.1,5.3,0.1,10c0,4.3-0.1,8.1-0.1,10h17.5c0-0.7,0-1.3,0-2c0-0.7,0-1.4,0-2
			c-4.1,0.1-9.2,0.1-12.8,0.1c0-1.7,0-4,0-6.1c0-4.6,0.1-8.4,0.2-10L513.1,286.8L513.1,286.8z"/>
		<path fill="#1B6AFE" d="M543.3,298c-3.1,0-6.1-0.1-7.4-0.1v-7.4c2-0.1,6-0.1,7.5-0.1c3.9,0,5.5,1,5.5,3.8S547.4,298,543.3,298
			L543.3,298z M531.2,286.8c0.1,2.8,0.1,5.8,0.1,10c0,4.3,0,7.2-0.1,10h5c-0.1-1.4-0.2-3.3-0.2-5.4c3.6,0.1,5.4,0.1,8.2,0.1
			c6,0,9.3-2.2,9.3-7.5c0-5.5-3.4-7.3-9.3-7.3L531.2,286.8L531.2,286.8z"/>
		<path fill="#1B6AFE" d="M559.3,296.7c0-2,0-4.2,0-6.3c2.1-0.1,6.5-0.1,8-0.1c3.8,0,5.3,0.7,5.3,3.2c0,2.1-1.5,3.3-5.1,3.3
			C564,296.8,560.7,296.8,559.3,296.7L559.3,296.7z M571.3,298.6c4.1-0.6,5.9-2.4,5.9-5.8c0-4.2-3.1-6-8.7-6h-13.8
			c0.1,2.9,0.1,5.8,0.1,10c0,4.3-0.1,7.1-0.1,10h4.9c-0.2-1.7-0.2-4-0.3-6.8h7.9c3.7,0,4.2,0.9,5.5,4.7c0.5,1.8,0.6,2.1,1.5,2.1h4.3
			c-0.4-0.8-0.9-2.2-1.5-4.1C576,299.9,574.7,299.1,571.3,298.6L571.3,298.6L571.3,298.6z"/>
		<path fill="#1B6AFE" d="M604.2,296.7c0-6.9-4.9-10.4-13.2-10.4c-8.3,0-13.1,3.6-13.1,10.4c0,6.9,4.6,10.7,13.1,10.7
			C599.6,307.4,604.2,303.5,604.2,296.7z M591.1,303.5c-5.6,0-8.4-2.3-8.4-6.7c0-4.4,2.8-6.6,8.4-6.6c5.6,0,8.4,2.2,8.4,6.6
			C599.5,301.2,596.7,303.5,591.1,303.5z"/>
		<path fill="#1B6AFE" d="M630.6,296.7c0-6.9-4.9-10.4-13.2-10.4c-8.3,0-13.1,3.6-13.1,10.4c0,6.9,4.6,10.7,13.1,10.7
			C626,307.4,630.6,303.5,630.6,296.7z M617.5,303.5c-5.6,0-8.4-2.3-8.4-6.7c0-4.4,2.8-6.6,8.4-6.6c5.6,0,8.4,2.2,8.4,6.6
			C625.9,301.2,623.1,303.5,617.5,303.5z"/>
		<path fill="#1B6AFE" d="M632.1,286.8c0.1,2.7,0.1,5.8,0.1,10c0,4.3,0,7.3-0.1,10h4.9c-0.1-1.7-0.1-4.2-0.2-6.5
			c5.5,0,11,0.1,15.6,0.1c0-0.9,0-2.7,0.1-3.7c-4.7,0.1-10.2,0.1-15.7,0.1v-6.1c4.5,0,10.2,0,15.9,0.1c0-0.6-0.1-1.4-0.1-2.1
			c0-0.6,0-1.3,0.1-1.8H632.1L632.1,286.8z"/>
		<path fill="#1B6AFE" d="M405.2,298.4l-2.5,2.5l0.6,1h-3.8l1.6-1.5l5.2-5.1c0.9-0.9,1.2-2.1,0.9-3.3c-0.3-1.2-1.2-2.1-2.4-2.4
			l-2-0.5v3.5l1.1,0.3l-1.8,1.8l-0.9,0.9v-9.4c0-1.2-0.6-2.3-1.7-2.9c-1.1-0.6-2.4-0.6-3.4,0l-1.8,1l2.5,2.5l1-0.6v3.8l-2.5-2.5
			l-4.2-4.1c-0.9-0.9-2.1-1.2-3.3-0.9c-1.2,0.3-2.1,1.2-2.4,2.4l-0.5,2h3.6l0.3-1.1l2.7,2.7h-1h-2.6h-5.9c-1.2,0-2.4,0.6-3,1.7
			c-0.6,1-0.6,2.3,0,3.4l1,1.8l2.5-2.5l-0.6-1h3.9l-1.6,1.5l-1,1l-4.2,4.1c-0.9,0.9-1.2,2.1-0.9,3.3c0.3,1.2,1.2,2.1,2.4,2.4l2,0.5
			v-3.5l-1.1-0.3l2.7-2.7l0,2.2v7.2c0,1.2,0.7,2.3,1.7,2.9c1.1,0.6,2.4,0.6,3.4,0l1.8-1l-2.5-2.5l-1,0.6v-13.6l5.1-2.9l2,1.1
			l1.2,0.7l2,1.1v5.8l-2,1.1l-1.2,0.7l-2,1.1l-3.9-2.2v4.5l5.5,5.5c0.9,0.9,2.1,1.2,3.3,0.9c1.2-0.3,2.1-1.2,2.4-2.4l0.5-2h-3.6
			l-0.3,1.1l-2.7-2.7l2.2,0h7.3c1.2,0,2.4-0.6,3-1.7c0.6-1,0.6-2.3,0-3.4L405.2,298.4L405.2,298.4z"/>
	</g>
</g>
<g>
	<g>
		<defs>
			<rect id="SVGID_00000174580974483954067350000003783947844422743231_" x="310.9" y="426.9" width="333.1" height="92.3"/>
		</defs>
		<clipPath id="SVGID_00000013189875970388730100000004511011900674428854_">
			<use xlink:href="#SVGID_00000174580974483954067350000003783947844422743231_"  overflow="visible"/>
		</clipPath>
		<g clip-path="url(#SVGID_00000013189875970388730100000004511011900674428854_)">
			<defs>
				
					<filter id="Adobe_OpacityMaskFilter_00000080885531899806964270000008039445398414570658_" filterUnits="userSpaceOnUse" x="310.9" y="426.9" width="333.1" height="92.3">
					<feColorMatrix  type="matrix" values="1 0 0 0 0  0 1 0 0 0  0 0 1 0 0  0 0 0 1 0"/>
				</filter>
			</defs>
			
				<mask maskUnits="userSpaceOnUse" x="310.9" y="426.9" width="333.1" height="92.3" id="mask0_4282_1013_00000003101947695675248780000014808672009710761866_">
				<path fill="#FFFFFF" filter="url(#Adobe_OpacityMaskFilter_00000080885531899806964270000008039445398414570658_)" d="
					M674.2,369.2H280.7v207.7h393.4V369.2z"/>
			</mask>
			<g mask="url(#mask0_4282_1013_00000003101947695675248780000014808672009710761866_)">
				<path fill="#FFFFFF" d="M350.7,426.9L310.9,450v46.1l12.7,7.3v-10.3l-3.8-2.2v-35.9l30.9-17.9l31,17.9V491l-31,17.9l-8.1-4.7
					v10.3l8.1,4.7l39.8-23.1V450L350.7,426.9z"/>
				<path fill="#F8B529" d="M350.7,447.5l-22.1,12.8v46.1l8.9,5.1v-20.6l13.2,7.7l22.1-12.8v-25.6L350.7,447.5z M363.9,480.7
					l-13.2,7.7l-13.2-7.7v-15.3l13.2-7.6l13.2,7.7V480.7z"/>
				<path fill="#FFFFFF" d="M547.2,503c-1,0.6-2.2,0.8-3.3,0.9c-2.4,0-4.3-1.5-4.3-4.8v-5h-2.2v-2.2h2.2v-2.7l2.4-0.5v3.2h4.8v2.3
					H542v4.9c0,1.7,0.8,2.6,2.3,2.6c0.9-0.1,1.7-0.3,2.5-0.6L547.2,503z"/>
				<path fill="#FFFFFF" d="M558.8,498.4h-9.5c0.2,2.2,1.7,3.3,3.7,3.3c1.4,0,2.6-0.6,3.1-1.7h2.5c-0.9,2.6-3.1,3.9-5.6,3.9
					c-3.6,0-6.1-2.6-6.1-6.1c0-3.5,2.5-6.2,6-6.2C556.6,491.6,559,494.5,558.8,498.4z M549.4,496.4h6.8c-0.4-1.6-1.6-2.7-3.3-2.7
					c-0.8,0-1.6,0.2-2.2,0.7C550,494.9,549.6,495.6,549.4,496.4z"/>
				<path fill="#FFFFFF" d="M559.1,497.7c0-3.5,2.6-6.1,6.1-6.1c2.8,0,5.2,1.7,5.7,4.5h-2.5c-0.4-1.5-1.7-2.3-3.3-2.3
					c-2.2,0-3.7,1.6-3.7,3.9c0,2.3,1.5,3.9,3.6,3.9c1.5,0,2.8-0.9,3.3-2.3h2.5c-0.6,2.9-3,4.5-5.8,4.5
					C561.7,503.9,559.1,501.2,559.1,497.7z"/>
				<path fill="#FFFFFF" d="M582.2,496.2v7.4h-2.4v-6.9c0-1.8-0.8-2.8-2.6-2.8c-2,0-3.2,1.3-3.2,3.6v6.1h-2.4v-16.4h2.4v6.6
					c0.4-0.7,1-1.3,1.7-1.6s1.5-0.6,2.3-0.5C580.6,491.6,582.2,493.3,582.2,496.2z"/>
				<path fill="#FFFFFF" d="M599.6,491.9v11.6c0,3.5-2.2,5.7-5.7,5.7c-2.8,0-5.3-1.5-5.8-4.4h2.5c0.4,1.5,1.7,2.2,3.3,2.2
					c2.1,0,3.3-1.2,3.3-3.5v-2c-0.4,0.7-1,1.2-1.8,1.6c-0.7,0.4-1.5,0.6-2.3,0.6c-3.1,0-5.4-2.5-5.4-6.1c0-3.5,2.3-6.1,5.4-6.1
					c0.8,0,1.6,0.2,2.3,0.6c0.7,0.4,1.3,1,1.8,1.7v-2L599.6,491.9z M597.2,497.7c0-2.2-1.6-3.8-3.6-3.8c-2,0-3.5,1.6-3.5,3.8
					c0,2.2,1.5,3.8,3.5,3.8S597.2,499.9,597.2,497.7L597.2,497.7z"/>
				<path fill="#FFFFFF" d="M607.8,491.7v2.5c-0.2,0-0.5,0-0.7,0c-2.2,0-3.9,1.2-3.9,4.1v5.4h-2.4v-11.7h2.4v2.3
					c0.3-0.8,0.8-1.5,1.5-1.9c0.7-0.5,1.5-0.7,2.4-0.7C607.3,491.6,607.6,491.6,607.8,491.7z"/>
				<path fill="#FFFFFF" d="M619.7,497.7c0,1.2-0.4,2.4-1,3.4c-0.7,1-1.6,1.8-2.7,2.2c-1.1,0.5-2.3,0.6-3.5,0.3
					c-1.2-0.2-2.3-0.8-3.1-1.7c-0.8-0.9-1.4-1.9-1.6-3.1c-0.2-1.2-0.1-2.4,0.4-3.5c0.5-1.1,1.2-2.1,2.2-2.7c1-0.7,2.2-1,3.4-1
					c1.6,0,3.1,0.6,4.2,1.7c1.1,1.1,1.8,2.6,1.8,4.2C619.7,497.6,619.7,497.7,619.7,497.7z M610,497.7c0,2.3,1.6,3.8,3.6,3.8
					s3.6-1.6,3.6-3.8c0-2.3-1.6-3.8-3.6-3.8C611.6,493.9,610,495.5,610,497.7L610,497.7z"/>
				<path fill="#FFFFFF" d="M630.8,491.9v11.7h-2.4v-1.9c-0.4,0.7-1,1.3-1.6,1.6c-0.7,0.4-1.5,0.6-2.3,0.6c-2.6,0-4.2-1.7-4.2-4.6
					v-7.4h2.4v6.9c0,1.8,0.8,2.8,2.5,2.8c2,0,3.1-1.3,3.1-3.6v-6.1H630.8z"/>
				<path fill="#FFFFFF" d="M644,497.7c0,3.6-2.3,6.1-5.4,6.1c-0.8,0-1.6-0.2-2.3-0.6c-0.7-0.4-1.3-1-1.8-1.7v7.3h-2.4v-17.1h2.4v2
					c0.4-0.7,1-1.3,1.8-1.7c0.7-0.4,1.5-0.6,2.4-0.6C641.7,491.6,644,494.1,644,497.7z M641.6,497.7c0-2.2-1.4-3.8-3.5-3.8
					s-3.6,1.6-3.6,3.8c0,2.2,1.6,3.8,3.6,3.8S641.6,500,641.6,497.7L641.6,497.7z"/>
				<path fill="#FFFFFF" d="M439.8,466.6c0,9.5-6.1,16.3-14.4,16.3c-2.2,0-4.3-0.5-6.2-1.5c-1.9-1-3.5-2.5-4.7-4.4v19.4h-6.4V451
					h6.4v5.3c1.1-1.9,2.7-3.4,4.7-4.5c1.9-1.1,4.1-1.6,6.3-1.6C433.6,450.3,439.8,457,439.8,466.6z M433.4,466.6
					c0-6-3.8-10.2-9.3-10.2c-5.4,0-9.6,4.2-9.6,10.2c0,6,4.1,10.2,9.6,10.2C429.4,476.7,433.4,472.6,433.4,466.6z"/>
				<path fill="#FFFFFF" d="M459.2,450.5v6.5c-0.6-0.1-1.3-0.1-1.9-0.1c-5.8,0-10.3,3.3-10.3,11v14.3h-6.4V451h6.4v6.2
					c1.9-4.4,5.4-6.9,10.4-6.9C458,450.3,458.6,450.3,459.2,450.5z"/>
				<path fill="#FFFFFF" d="M489.3,466.6c0,9.4-7.1,16.3-16.1,16.3c-9,0-16.1-7-16.1-16.3c0-9.4,7.2-16.3,16.1-16.3
					C482.1,450.3,489.3,457.1,489.3,466.6z M463.5,466.6c0,6,4.2,10.2,9.7,10.2c5.4,0,9.7-4.1,9.7-10.2c0-6-4.3-10.2-9.7-10.2
					C467.8,456.4,463.5,460.6,463.5,466.6L463.5,466.6z"/>
				<path fill="#F8B529" d="M505.5,448.8l-12.6,33.4H486l15.3-39.8h8.2l23.7,61.6h-6.8L505.5,448.8z"/>
				<path fill="#FFFFFF" d="M521.6,466.6c0-9.3,6.9-16.3,16.2-16.3c7.4,0,13.9,4.5,15.3,12h-6.6c-1.2-3.9-4.7-6.1-8.7-6.1
					c-5.8,0-9.7,4.3-9.7,10.3c0,6.1,4.1,10.3,9.7,10.3c4.1,0,7.5-2.3,8.7-6.1h6.6c-1.5,7.7-8,12.1-15.3,12.1
					C528.6,482.9,521.6,475.9,521.6,466.6z"/>
				<path fill="#FFFFFF" d="M577,480.6c-1.7,1-5.3,2.3-8.9,2.3c-6.4,0-11.4-4-11.4-12.7V457H551v-6h5.8v-7.1l6.4-1.4v8.5h12.8v6
					h-12.8v12.9c0,4.6,2.1,7,6.1,7c2,0,4.2-0.7,6.6-1.5L577,480.6z"/>
				<path fill="#FFFFFF" d="M584.5,440.8c0,2.3-1.8,4-4.2,4c-2.3,0-4.1-1.7-4.1-4c0-2.3,1.8-3.9,4.1-3.9
					C582.8,436.9,584.5,438.5,584.5,440.8z M577.2,451h6.4v31.2h-6.4V451z"/>
				<path fill="#FFFFFF" d="M613.1,451l-11.2,31.2h-7.8L582.9,451h6.8l8.3,24.5l8.3-24.5L613.1,451z"/>
				<path fill="#FFFFFF" d="M641.5,468.3h-25.3c0.5,5.7,4.5,8.9,9.7,8.9c3.7,0,6.9-1.6,8.3-4.7h6.6c-2.4,7-8.4,10.3-15,10.3
					c-9.5,0-16.2-6.8-16.2-16.2c0-9.4,6.7-16.3,16.1-16.3C635.7,450.3,642.1,458,641.5,468.3z M616.5,463.1h18.1
					c-1-4.3-4.2-7.3-8.9-7.3C620.9,455.8,617.6,458.9,616.5,463.1z"/>
			</g>
		</g>
	</g>
	<path fill="#FFFFFF" d="M359.9,560.9v4h-1.3v-10h3.2c0.4,0,0.9,0.1,1.3,0.2c0.4,0.1,0.8,0.3,1.1,0.6c0.3,0.3,0.5,0.6,0.7,0.9
		c0.2,0.4,0.3,0.8,0.3,1.3c0,0.5-0.1,0.9-0.3,1.3c-0.2,0.4-0.4,0.7-0.7,0.9c-0.3,0.3-0.7,0.4-1.1,0.6c-0.4,0.1-0.8,0.2-1.3,0.2
		H359.9z M359.9,559.9h2c0.3,0,0.6,0,0.8-0.1c0.2-0.1,0.5-0.2,0.6-0.4c0.2-0.2,0.3-0.4,0.4-0.6c0.1-0.2,0.2-0.5,0.2-0.8
		c0-0.3-0.1-0.6-0.2-0.8c-0.1-0.2-0.2-0.4-0.4-0.6c-0.2-0.2-0.4-0.3-0.7-0.4c-0.2-0.1-0.5-0.1-0.8-0.1h-2V559.9z M366.7,561.2
		c0-0.5,0.1-1,0.2-1.5c0.2-0.5,0.4-0.9,0.7-1.2c0.3-0.3,0.6-0.6,1.1-0.8c0.4-0.2,0.9-0.3,1.4-0.3c0.5,0,1,0.1,1.4,0.3
		c0.4,0.2,0.8,0.5,1.1,0.8c0.3,0.3,0.5,0.7,0.7,1.2c0.2,0.5,0.2,1,0.2,1.5v0.2c0,0.5-0.1,1-0.2,1.5c-0.2,0.5-0.4,0.9-0.7,1.2
		c-0.3,0.3-0.6,0.6-1.1,0.8c-0.4,0.2-0.9,0.3-1.4,0.3c-0.5,0-1-0.1-1.4-0.3c-0.4-0.2-0.8-0.5-1.1-0.8c-0.3-0.3-0.5-0.7-0.7-1.2
		c-0.2-0.5-0.2-1-0.2-1.5V561.2z M367.9,561.3c0,0.4,0,0.7,0.1,1.1c0.1,0.3,0.2,0.6,0.4,0.9c0.2,0.3,0.4,0.5,0.7,0.6
		c0.3,0.1,0.6,0.2,0.9,0.2c0.3,0,0.7-0.1,0.9-0.2c0.3-0.1,0.5-0.3,0.7-0.6c0.2-0.3,0.3-0.5,0.4-0.9c0.1-0.3,0.1-0.7,0.1-1.1v-0.2
		c0-0.4,0-0.7-0.1-1c-0.1-0.3-0.2-0.6-0.4-0.9c-0.2-0.3-0.4-0.5-0.7-0.6c-0.3-0.2-0.6-0.2-0.9-0.2s-0.7,0.1-0.9,0.2
		c-0.3,0.1-0.5,0.3-0.7,0.6c-0.2,0.3-0.3,0.5-0.4,0.9c-0.1,0.3-0.1,0.7-0.1,1V561.3z M376.2,564.9l-1.6-7.4h1.1l0.9,4.7l0.2,1.1
		l0.2-1.1l1.2-4.7h0.8l1.2,4.7l0.2,1.2l0.2-1.2l0.8-4.7h1.1l-1.6,7.4h-1l-1.2-4.6l-0.2-1.2l-0.2,1.2l-1.1,4.6H376.2z M387.2,565.1
		c-0.5,0-1-0.1-1.4-0.3c-0.4-0.2-0.8-0.4-1.1-0.7c-0.3-0.3-0.6-0.7-0.7-1.1c-0.2-0.4-0.3-0.9-0.3-1.4v-0.3c0-0.6,0.1-1.1,0.3-1.6
		c0.2-0.5,0.4-0.9,0.8-1.2c0.3-0.3,0.7-0.6,1.1-0.8c0.4-0.2,0.8-0.3,1.3-0.3c0.5,0,1,0.1,1.4,0.3c0.4,0.2,0.7,0.4,1,0.8
		c0.3,0.3,0.5,0.7,0.6,1.2c0.1,0.4,0.2,0.9,0.2,1.4v0.6h-5.3v0c0,0.4,0.1,0.7,0.2,1c0.1,0.3,0.3,0.5,0.5,0.7
		c0.2,0.2,0.4,0.4,0.7,0.5c0.3,0.1,0.6,0.2,0.9,0.2c0.5,0,0.9-0.1,1.2-0.3c0.4-0.2,0.6-0.4,0.9-0.7l0.8,0.6c-0.2,0.4-0.6,0.7-1.1,1
		C388.5,564.9,387.9,565.1,387.2,565.1z M387.1,558.4c-0.3,0-0.5,0-0.7,0.1c-0.2,0.1-0.4,0.2-0.6,0.4c-0.2,0.2-0.3,0.4-0.5,0.7
		c-0.1,0.3-0.2,0.6-0.3,0.9h4v-0.1c0-0.2,0-0.5-0.1-0.7c-0.1-0.3-0.2-0.5-0.4-0.7c-0.2-0.2-0.4-0.3-0.6-0.5
		C387.7,558.5,387.4,558.4,387.1,558.4z M397.3,557.4c0.2,0,0.5,0,0.7,0c0.3,0,0.4,0.1,0.6,0.1l-0.2,1.2c-0.2-0.1-0.5-0.1-0.7-0.1
		c-0.2,0-0.5,0-0.7,0c-0.3,0-0.6,0-0.8,0.1c-0.3,0.1-0.5,0.2-0.7,0.3c-0.2,0.1-0.3,0.3-0.4,0.5c-0.1,0.2-0.2,0.4-0.3,0.6v4.8h-1.3
		v-7.4h1.2l0.1,1l0,0.2c0.3-0.4,0.7-0.7,1.1-1C396.2,557.5,396.7,557.4,397.3,557.4z M404.1,565.1c-0.5,0-1-0.1-1.4-0.3
		c-0.4-0.2-0.8-0.4-1.1-0.7c-0.3-0.3-0.6-0.7-0.7-1.1c-0.2-0.4-0.3-0.9-0.3-1.4v-0.3c0-0.6,0.1-1.1,0.3-1.6c0.2-0.5,0.4-0.9,0.8-1.2
		c0.3-0.3,0.7-0.6,1.1-0.8c0.4-0.2,0.8-0.3,1.3-0.3c0.5,0,1,0.1,1.4,0.3c0.4,0.2,0.7,0.4,1,0.8c0.3,0.3,0.5,0.7,0.6,1.2
		c0.1,0.4,0.2,0.9,0.2,1.4v0.6h-5.3v0c0,0.4,0.1,0.7,0.2,1c0.1,0.3,0.3,0.5,0.5,0.7c0.2,0.2,0.4,0.4,0.7,0.5
		c0.3,0.1,0.6,0.2,0.9,0.2c0.5,0,0.9-0.1,1.2-0.3s0.6-0.4,0.9-0.7l0.8,0.6c-0.2,0.4-0.6,0.7-1.1,1
		C405.5,564.9,404.9,565.1,404.1,565.1z M404,558.4c-0.3,0-0.5,0-0.7,0.1c-0.2,0.1-0.4,0.2-0.6,0.4c-0.2,0.2-0.3,0.4-0.5,0.7
		c-0.1,0.3-0.2,0.6-0.3,0.9h4v-0.1c0-0.2,0-0.5-0.1-0.7c-0.1-0.3-0.2-0.5-0.4-0.7c-0.2-0.2-0.4-0.3-0.6-0.5
		C404.6,558.5,404.3,558.4,404,558.4z M409.1,561.2c0-0.6,0.1-1.1,0.2-1.5c0.1-0.5,0.3-0.9,0.6-1.2c0.3-0.3,0.6-0.6,0.9-0.8
		s0.8-0.3,1.2-0.3c0.4,0,0.8,0.1,1.2,0.2c0.3,0.1,0.6,0.4,0.9,0.6v-3.9h1.3v10.6h-1.2l-0.1-0.8c-0.2,0.3-0.5,0.5-0.9,0.7
		c-0.3,0.2-0.7,0.2-1.2,0.2c-0.4,0-0.9-0.1-1.2-0.3c-0.4-0.2-0.7-0.5-0.9-0.8c-0.3-0.3-0.5-0.7-0.6-1.2c-0.1-0.5-0.2-1-0.2-1.5
		V561.2z M410.3,561.3c0,0.4,0,0.7,0.1,1c0.1,0.3,0.2,0.6,0.4,0.9c0.2,0.2,0.4,0.4,0.6,0.6c0.3,0.1,0.6,0.2,0.9,0.2
		c0.4,0,0.8-0.1,1.1-0.3s0.5-0.5,0.7-0.8v-3.5c-0.2-0.3-0.4-0.6-0.7-0.7c-0.3-0.2-0.6-0.3-1-0.3c-0.4,0-0.7,0.1-0.9,0.2
		c-0.3,0.1-0.5,0.3-0.6,0.6c-0.2,0.3-0.3,0.5-0.4,0.9c-0.1,0.3-0.1,0.7-0.1,1V561.3z M432.5,561.3c0,0.3,0,0.6-0.1,0.9
		c0,0.3-0.1,0.6-0.2,0.8c-0.1,0.3-0.3,0.7-0.5,0.9c-0.2,0.3-0.4,0.5-0.7,0.7c-0.2,0.1-0.4,0.2-0.7,0.3c-0.2,0.1-0.5,0.1-0.8,0.1
		c-0.3,0-0.6,0-0.9-0.1c-0.3-0.1-0.5-0.2-0.7-0.3c-0.1-0.1-0.2-0.2-0.3-0.2c-0.1-0.1-0.2-0.2-0.3-0.3l-0.1,0.8h-1.2v-10.6h1.3v3.9
		c0.1-0.1,0.2-0.3,0.4-0.4c0.1-0.1,0.3-0.2,0.4-0.3c0.2-0.1,0.4-0.2,0.6-0.2c0.2-0.1,0.5-0.1,0.7-0.1c0.3,0,0.6,0,0.9,0.1
		s0.5,0.2,0.7,0.4c0.2,0.1,0.4,0.3,0.5,0.5c0.2,0.2,0.3,0.4,0.4,0.7c0.1,0.3,0.2,0.6,0.3,1c0.1,0.3,0.1,0.7,0.1,1.1V561.3z
		 M431.3,561.2c0-0.2,0-0.5,0-0.7c0-0.2-0.1-0.4-0.1-0.6c-0.1-0.2-0.2-0.5-0.3-0.7c-0.1-0.2-0.3-0.4-0.5-0.5
		c-0.1-0.1-0.3-0.1-0.4-0.2c-0.2,0-0.3-0.1-0.6-0.1c-0.2,0-0.4,0-0.6,0.1c-0.2,0.1-0.3,0.1-0.5,0.2c-0.1,0.1-0.3,0.2-0.4,0.4
		c-0.1,0.1-0.2,0.3-0.3,0.5v3.3c0.1,0.2,0.2,0.3,0.3,0.5c0.1,0.1,0.2,0.3,0.4,0.4c0.1,0.1,0.3,0.2,0.5,0.2c0.2,0.1,0.4,0.1,0.6,0.1
		c0.2,0,0.4,0,0.6-0.1c0.2-0.1,0.3-0.1,0.5-0.2c0.2-0.1,0.3-0.3,0.5-0.5c0.1-0.2,0.2-0.4,0.3-0.7c0.1-0.2,0.1-0.4,0.1-0.6
		c0-0.2,0-0.4,0-0.6V561.2z M435.3,568c-0.1,0-0.3,0-0.4,0c-0.2,0-0.3-0.1-0.4-0.1l0.2-1c0.1,0,0.2,0,0.3,0c0.1,0,0.2,0,0.3,0
		c0.2,0,0.3,0,0.5-0.1c0.1-0.1,0.3-0.2,0.4-0.3c0.1-0.1,0.2-0.3,0.3-0.4c0.1-0.1,0.1-0.3,0.2-0.4l0.5-1l-3.2-7.1h1.4l2,4.8l0.3,0.9
		l0.4-0.9l1.9-4.8h1.4l-3.8,8.6c-0.1,0.2-0.2,0.4-0.3,0.6c-0.1,0.2-0.3,0.4-0.5,0.6c-0.2,0.2-0.4,0.3-0.7,0.5S435.6,568,435.3,568z"
		/>
	<g>
		<path fill="#1B6AFE" d="M483.5,560.5c-0.4,0-1,0-1.7,0c-0.6,0-1.2,0-1.6-0.1c0,0.3,0,0.6,0,1c0,2.8,2.4,4.2,8.2,4.2
			c5.9,0,7.9-1.5,7.9-4.4c0-2.8-1.8-3.9-7.3-4.4c-4.8-0.4-5.3-1-5.3-2c0-1.1,1-1.6,4.4-1.6c3.8,0,4.8,0.7,4.8,2.1c0,0.2,0,0.4,0,0.6
			c0.4,0,1,0,1.6,0c0.6,0,1.2,0,1.5,0c0-0.3,0-0.6,0-0.9c0-2.8-2-4.2-7.8-4.2c-5.4,0-7.7,1.6-7.7,4.2c0,2.6,1.6,3.9,7.4,4.3
			c4.4,0.3,5.3,0.9,5.3,2c0,1.2-1,1.8-4.7,1.8c-3.7,0-4.9-0.6-4.9-2.2V560.5L483.5,560.5z"/>
		<path fill="#1B6AFE" d="M511,551.2c0.1,1.4,0.1,3.9,0.1,5.7c-1.5,0.1-3.3,0.1-5.1,0.1c-1.8,0-3.5,0-5.1-0.1c0-1.7,0-4.3,0.1-5.7
			h-3.4c0.1,1.9,0.1,4.1,0.1,7.1c0,3,0,5-0.1,7.1h3.4c-0.1-1.5-0.1-3.9-0.1-5.6c1.5-0.1,3.3,0,5.1,0s3.6,0,5.1,0
			c0,1.6,0,4.1-0.1,5.6h3.5c-0.1-2-0.1-4.1-0.1-7.1s0-5.1,0.1-7.1H511z"/>
		<path fill="#1B6AFE" d="M516.5,551.2c0.1,1.8,0.1,4.1,0.1,7.1s0,5.2-0.1,7.1h14.8c0-0.3,0-0.9,0-1.3c0-0.5,0-1,0-1.3
			c-3.5,0-8.4,0.1-11.4,0.1v-3.5c3.6,0,8.3,0,11.2,0.1c0-0.6,0-1.8,0-2.3c-2.9,0-7.6,0-11.2,0v-3.5c3,0,7.8,0,11.4,0.1
			c0-0.3,0-0.9,0-1.3c0-0.4,0-0.9,0-1.2L516.5,551.2L516.5,551.2z"/>
		<path fill="#1B6AFE" d="M533,551.2c0.1,1.4,0.1,3.7,0.1,7.1c0,3-0.1,5.7-0.1,7.1h12.3c0-0.5,0-0.9,0-1.4c0-0.5,0-1,0-1.4
			c-2.9,0.1-6.5,0.1-9,0.1c0-1.2,0-2.8,0-4.3c0-3.3,0.1-5.9,0.1-7.1L533,551.2L533,551.2z"/>
		<path fill="#1B6AFE" d="M545.7,551.2c0.1,1.4,0.1,3.7,0.1,7.1c0,3-0.1,5.7-0.1,7.1H558c0-0.5,0-0.9,0-1.4c0-0.5,0-1,0-1.4
			c-2.9,0.1-6.5,0.1-9,0.1c0-1.2,0-2.8,0-4.3c0-3.3,0.1-5.9,0.1-7.1L545.7,551.2L545.7,551.2z"/>
		<path fill="#1B6AFE" d="M566.9,559c-2.2,0-4.3,0-5.2,0v-5.2c1.4,0,4.2-0.1,5.3-0.1c2.7,0,3.9,0.7,3.9,2.7
			C570.9,558.4,569.8,559,566.9,559L566.9,559z M558.4,551.2c0.1,1.9,0.1,4.1,0.1,7.1s0,5-0.1,7.1h3.5c-0.1-1-0.1-2.3-0.1-3.8
			c2.5,0.1,3.8,0.1,5.8,0.1c4.3,0,6.6-1.6,6.6-5.3c0-3.9-2.4-5.1-6.5-5.1L558.4,551.2L558.4,551.2z"/>
		<path fill="#1B6AFE" d="M578.2,558.2c0-1.4,0-2.9,0-4.4c1.5-0.1,4.5-0.1,5.6-0.1c2.7,0,3.7,0.5,3.7,2.2c0,1.5-1.1,2.3-3.6,2.3
			C581.5,558.2,579.2,558.2,578.2,558.2L578.2,558.2z M586.7,559.5c2.9-0.4,4.1-1.7,4.1-4.1c0-2.9-2.2-4.2-6.1-4.2H575
			c0,2,0.1,4.1,0.1,7.1s0,5-0.1,7.1h3.5c-0.1-1.2-0.2-2.8-0.2-4.8h5.6c2.6,0,3,0.6,3.9,3.3c0.4,1.3,0.4,1.5,1.1,1.5h3.1
			c-0.3-0.5-0.6-1.6-1.1-2.9C590,560.4,589,559.8,586.7,559.5L586.7,559.5L586.7,559.5z"/>
		<path fill="#1B6AFE" d="M609.9,558.2c0-4.8-3.4-7.4-9.3-7.4c-5.8,0-9.2,2.5-9.2,7.4c0,4.8,3.2,7.5,9.2,7.5
			C606.6,565.7,609.9,562.9,609.9,558.2z M600.6,563c-4,0-5.9-1.6-5.9-4.8s2-4.7,5.9-4.7c3.9,0,5.9,1.6,5.9,4.7S604.5,563,600.6,563
			z"/>
		<path fill="#1B6AFE" d="M628.4,558.2c0-4.8-3.4-7.4-9.3-7.4c-5.8,0-9.2,2.5-9.2,7.4c0,4.8,3.2,7.5,9.2,7.5
			C625.2,565.7,628.4,562.9,628.4,558.2z M619.2,563c-4,0-5.9-1.6-5.9-4.8s2-4.7,5.9-4.7c3.9,0,5.9,1.6,5.9,4.7S623.1,563,619.2,563
			z"/>
		<path fill="#1B6AFE" d="M629.5,551.2c0.1,1.9,0.1,4.1,0.1,7.1s0,5.1-0.1,7.1h3.4c-0.1-1.2-0.1-2.9-0.1-4.6c3.9,0,7.7,0,11,0
			c0-0.7,0-1.9,0-2.6c-3.3,0.1-7.2,0.1-11.1,0.1v-4.3c3.2,0,7.2,0,11.2,0c0-0.4,0-1,0-1.5c0-0.4,0-0.9,0-1.3H629.5L629.5,551.2z"/>
		<path fill="#1B6AFE" d="M469.6,559.4l-1.8,1.8l0.4,0.7h-2.7l1.1-1.1l3.6-3.6c0.6-0.6,0.8-1.5,0.6-2.3c-0.2-0.8-0.9-1.5-1.7-1.7
			l-1.4-0.4v2.5l0.8,0.2l-1.3,1.3l-0.6,0.6v-6.6c0-0.8-0.5-1.6-1.2-2.1c-0.7-0.4-1.7-0.4-2.4,0l-1.3,0.7l1.8,1.8l0.7-0.4v2.7
			l-1.8-1.8l-2.9-2.9c-0.6-0.6-1.5-0.8-2.3-0.6c-0.8,0.2-1.5,0.9-1.7,1.7l-0.4,1.4h2.5l0.2-0.8l1.9,1.9H459h-1.9H453
			c-0.9,0-1.7,0.5-2.1,1.2c-0.4,0.7-0.4,1.6,0,2.4l0.7,1.2l1.8-1.8l-0.4-0.7h2.7l-1.1,1.1l-0.7,0.7l-2.9,2.9
			c-0.6,0.6-0.8,1.5-0.6,2.3c0.2,0.8,0.9,1.5,1.7,1.7l1.4,0.4v-2.5l-0.8-0.2l1.9-1.9l0,1.5v5.1c0,0.8,0.5,1.6,1.2,2.1
			c0.7,0.4,1.7,0.4,2.4,0l1.3-0.7l-1.8-1.8l-0.7,0.4v-9.5l3.6-2l1.4,0.8l0.8,0.5l1.4,0.8v4.1l-1.4,0.8l-0.8,0.5l-1.4,0.8l-2.7-1.6
			v3.1l3.9,3.8c0.6,0.6,1.5,0.8,2.3,0.6c0.8-0.2,1.5-0.9,1.7-1.7l0.4-1.4h-2.5l-0.2,0.8l-1.9-1.9l1.6,0h5.1c0.9,0,1.7-0.5,2.1-1.2
			s0.4-1.6,0-2.4L469.6,559.4L469.6,559.4z"/>
	</g>
</g>
</svg>
